<svg width="24" height="22" viewBox="0 0 24 22" fill="none" xmlns="http://www.w3.org/2000/svg">
<g clip-path="url(#clip0_7_467)">
<path d="M11.6256 9.58332C9.38919 9.06459 8.66997 8.52828 8.66997 7.69303C8.66997 6.7347 9.66505 6.0665 11.3301 6.0665C13.0838 6.0665 13.734 6.81383 13.7931 7.91283H15.9705C15.9015 6.4006 14.867 5.01146 12.8079 4.56306V2.6376H9.85224V4.53669C7.94091 4.90595 6.40396 6.01375 6.40396 7.71062C6.40396 9.74158 8.28574 10.7527 11.0345 11.3417C13.4976 11.8693 13.9902 12.643 13.9902 13.4606C13.9902 14.0673 13.5074 15.0344 11.3301 15.0344C9.30052 15.0344 8.50249 14.2255 8.39411 13.1881H6.22662C6.34485 15.1135 7.96061 16.1949 9.85224 16.5554V18.4633H12.8079V16.573C14.7291 16.2477 16.2562 15.2542 16.2562 13.4518C16.2562 10.9549 13.8621 10.1021 11.6256 9.58332Z" fill="white"/>
</g>
<defs>
<clipPath id="clip0_7_467">
<rect width="23.6453" height="21.1009" fill="white"/>
</clipPath>
</defs>
</svg>
