<svg width="19" height="17" viewBox="0 0 19 17" fill="none" xmlns="http://www.w3.org/2000/svg">
<g clip-path="url(#clip0_7_473)">
<path d="M17.8178 4.85434V0.897919H13.3843V2.21673H5.99514V0.897919H1.56165V4.85434H3.03948V11.4484H1.56165V15.4048H5.99514V14.086H13.3843V15.4048H17.8178V11.4484H16.34V4.85434H17.8178ZM3.03948 2.21673H4.51731V3.53553H3.03948V2.21673ZM4.51731 14.086H3.03948V12.7672H4.51731V14.086ZM13.3843 12.7672H5.99514V11.4484H4.51731V4.85434H5.99514V3.53553H13.3843V4.85434H14.8621V11.4484H13.3843V12.7672ZM16.34 14.086H14.8621V12.7672H16.34V14.086ZM14.8621 3.53553V2.21673H16.34V3.53553H14.8621ZM10.968 9.47017H8.38923L7.84982 10.789H6.65278L9.16509 4.85434H10.1996L12.7193 10.789H11.5148L10.968 9.47017V9.47017ZM8.72174 8.63932H10.6503L9.68972 6.1138L8.72174 8.63932V8.63932Z" fill="#00A3FF"/>
</g>
<defs>
<clipPath id="clip0_7_473">
<rect width="17.734" height="15.8257" fill="white" transform="translate(0.822754 0.238525)"/>
</clipPath>
</defs>
</svg>
