<svg width="44" height="44" viewBox="0 0 44 44" fill="none" xmlns="http://www.w3.org/2000/svg">
<path opacity="0.4" d="M6.4354 28.8178C6.05436 28.3888 5.7446 27.889 5.41064 27.221C3.98108 24.3377 3.90936 24.2915 3.98108 22.4563C4.0286 20.6215 11.1051 11.4242 14.7034 10.0659C18.3251 8.70804 20.1124 9.7328 25.3303 8.3028C30.525 6.8728 35.7429 3.29868 38.936 4.65696C40.0316 5.13348 36.3858 13.1393 39.8415 13.068C40.3418 13.0205 40.8658 12.9492 41.1039 12.925C41.5329 19.3112 41.1281 27.0543 41.0564 27.4358C40.9371 27.984 35.2189 36.5614 33.4796 38.9928L32.5736 38.5158L31.7394 39.6114C29.0474 39.4447 22.4945 38.4446 16.0846 34.6324C11.7246 32.0346 9.38956 30.9148 7.96 30.0098" fill="#9F9534"/>
<path d="M37.6732 4.65718C34.4568 3.29934 29.2626 6.87346 24.068 8.30302C18.8733 9.73258 17.0627 8.73202 13.4411 10.0661C9.81902 11.4244 2.76626 20.6217 2.71874 22.4565C2.67078 23.6722 2.69454 24.1008 3.12354 25.1013L4.38634 26.8165L4.02906 27.0074C4.07702 27.0796 4.10078 27.15 4.1483 27.2213C4.48182 27.8892 4.79158 28.389 5.17306 28.818L6.65014 30.01C8.08014 30.9151 10.4152 32.0349 14.7752 34.6326C22.9715 39.4933 31.3592 39.7784 31.6932 39.6117C32.0258 39.4449 39.6268 28.0555 39.7698 27.436C39.9128 26.8165 40.8663 6.0159 37.6732 4.65718Z" fill="#C5C52F"/>
<path d="M4.02905 27.0072C4.02905 27.0072 4.05325 27.0543 4.07701 27.1027C7.15041 26.9117 11.3199 25.8394 14.4179 25.0056C11.106 25.8161 4.29129 26.6979 4.29129 26.6979C4.29129 26.6979 4.33925 26.745 4.38633 26.8167C4.24377 26.8875 4.02905 27.0072 4.02905 27.0072Z" fill="#9F9534"/>
<path d="M22.4241 25.4346C25.9246 25.4346 28.7623 22.5969 28.7623 19.0964C28.7623 15.5959 25.9246 12.7582 22.4241 12.7582C18.9236 12.7582 16.0859 15.5959 16.0859 19.0964C16.0859 22.5969 18.9236 25.4346 22.4241 25.4346Z" fill="url(#paint0_linear_7_425)"/>
<path d="M22.4242 24.9335C25.6481 24.9335 28.2616 22.3199 28.2616 19.096C28.2616 15.872 25.6481 13.2585 22.4242 13.2585C19.2002 13.2585 16.5867 15.872 16.5867 19.096C16.5867 22.3199 19.2002 24.9335 22.4242 24.9335Z" fill="white"/>
<path d="M21.3752 23.0036C22.6777 23.0036 23.7336 21.9477 23.7336 20.6452C23.7336 19.3427 22.6777 18.2868 21.3752 18.2868C20.0727 18.2868 19.0168 19.3427 19.0168 20.6452C19.0168 21.9477 20.0727 23.0036 21.3752 23.0036Z" fill="#010101"/>
<path d="M20.8511 21.8363C21.2589 21.8363 21.5894 21.5058 21.5894 21.098C21.5894 20.6902 21.2589 20.3597 20.8511 20.3597C20.4434 20.3597 20.1128 20.6902 20.1128 21.098C20.1128 21.5058 20.4434 21.8363 20.8511 21.8363Z" fill="white"/>
<defs>
<linearGradient id="paint0_linear_7_425" x1="16.065" y1="19.0916" x2="28.7593" y2="19.0916" gradientUnits="userSpaceOnUse">
<stop stop-color="white" stop-opacity="0"/>
<stop offset="1" stop-color="#9F9534" stop-opacity="0.7"/>
</linearGradient>
</defs>
</svg>
