<svg width="20" height="20" viewBox="0 0 20 20" fill="none" xmlns="http://www.w3.org/2000/svg">
<g clip-path="url(#clip0_7_444)">
<path d="M10 18.3333C10.9167 18.3333 11.6667 17.5833 11.6667 16.6667H8.33334C8.33334 17.5833 9.08334 18.3333 10 18.3333ZM15 13.3333V9.16666C15 6.60833 13.6417 4.46666 11.25 3.89999V3.33333C11.25 2.64166 10.6917 2.08333 10 2.08333C9.30834 2.08333 8.75001 2.64166 8.75001 3.33333V3.89999C6.36668 4.46666 5.00001 6.59999 5.00001 9.16666V13.3333L3.33334 15V15.8333H16.6667V15L15 13.3333ZM13.3333 14.1667H6.66668V9.16666C6.66668 7.09999 7.92501 5.41666 10 5.41666C12.075 5.41666 13.3333 7.09999 13.3333 9.16666V14.1667Z" fill="white" fill-opacity="0.3"/>
</g>
<defs>
<clipPath id="clip0_7_444">
<rect width="20" height="20" fill="white"/>
</clipPath>
</defs>
</svg>
