<svg width="24" height="22" viewBox="0 0 24 22" fill="none" xmlns="http://www.w3.org/2000/svg">
<g clip-path="url(#clip0_7_464)">
<path d="M15.271 12.3089H14.4926L14.2168 12.0715C15.1823 11.0692 15.7636 9.76799 15.7636 8.35247C15.7636 5.19612 12.8966 2.63763 9.35963 2.63763C5.82268 2.63763 2.95569 5.19612 2.95569 8.35247C2.95569 11.5088 5.82268 14.0673 9.35963 14.0673C10.9458 14.0673 12.404 13.5486 13.5271 12.6869L13.7931 12.9331V13.6277L18.7192 18.0149L20.1872 16.7049L15.271 12.3089ZM9.35963 12.3089C6.90643 12.3089 4.92613 10.5417 4.92613 8.35247C4.92613 6.16325 6.90643 4.39604 9.35963 4.39604C11.8128 4.39604 13.7931 6.16325 13.7931 8.35247C13.7931 10.5417 11.8128 12.3089 9.35963 12.3089Z" fill="white"/>
</g>
<defs>
<clipPath id="clip0_7_464">
<rect width="23.6453" height="21.1009" fill="white"/>
</clipPath>
</defs>
</svg>
