<svg width="18" height="16" viewBox="0 0 18 16" fill="none" xmlns="http://www.w3.org/2000/svg">
<g clip-path="url(#clip0_7_458)">
<path d="M3.69456 1.31883C3.69456 0.956155 3.36204 0.659424 2.95564 0.659424C2.54924 0.659424 2.21672 0.956155 2.21672 1.31883V3.95644H0.738892V10.5505C0.738892 11.4077 1.35958 12.133 2.21672 12.41V15.1663H3.69456V12.41C4.5517 12.133 5.17239 11.4077 5.17239 10.5505V3.95644H3.69456V1.31883ZM2.95564 11.2099C2.54924 11.2099 2.21672 10.9132 2.21672 10.5505V9.23167H3.69456V10.5505C3.69456 10.9132 3.36204 11.2099 2.95564 11.2099ZM2.21672 7.91286V5.27525H3.69456V7.91286H2.21672ZM9.60589 1.31883C9.60589 0.956155 9.27337 0.659424 8.86697 0.659424C8.46057 0.659424 8.12805 0.956155 8.12805 1.31883V3.95644H6.65022V10.5505C6.65022 11.4077 7.27091 12.133 8.12805 12.41V15.1663H9.60589V12.41C10.463 12.133 11.0837 11.4077 11.0837 10.5505V3.95644H9.60589V1.31883ZM8.86697 11.2099C8.46057 11.2099 8.12805 10.9132 8.12805 10.5505V9.23167H9.60589V10.5505C9.60589 10.9132 9.27337 11.2099 8.86697 11.2099ZM8.12805 7.91286V5.27525H9.60589V7.91286H8.12805ZM15.5172 3.95644V1.31883C15.5172 0.956155 15.1847 0.659424 14.7783 0.659424C14.3719 0.659424 14.0394 0.956155 14.0394 1.31883V3.95644H12.5616V10.5505C12.5616 11.4077 13.1822 12.133 14.0394 12.41V15.1663H15.5172V12.41C16.3744 12.133 16.995 11.4077 16.995 10.5505V3.95644H15.5172ZM14.7783 11.2099C14.3719 11.2099 14.0394 10.9132 14.0394 10.5505V9.23167H15.5172V10.5505C15.5172 10.9132 15.1847 11.2099 14.7783 11.2099ZM14.0394 7.91286V5.27525H15.5172V7.91286H14.0394Z" fill="white" fill-opacity="0.4"/>
</g>
<defs>
<clipPath id="clip0_7_458">
<rect width="17.734" height="15.8257" fill="white"/>
</clipPath>
</defs>
</svg>
