<svg width="24" height="22" viewBox="0 0 24 22" fill="none" xmlns="http://www.w3.org/2000/svg">
<g clip-path="url(#clip0_7_461)">
<path d="M12.6798 13.2496L10.1773 11.0428L10.2069 11.0164C11.9212 9.31079 13.1429 7.35017 13.8621 5.27524H16.7488V3.51683H9.85222V1.75842H7.88178V3.51683H0.985229V5.26645H11.9902C11.3301 6.96332 10.2857 8.57226 8.867 9.97899C7.95075 9.07341 7.19213 8.07991 6.59114 7.03365H4.6207C5.33991 8.46676 6.32513 9.82073 7.55666 11.0428L2.54188 15.4564L3.94089 16.7049L8.867 12.3089L11.931 15.0432L12.6798 13.2496ZM18.2266 8.79206H16.2562L11.8227 19.3425H13.7931L14.8966 16.7049H19.5764L20.6897 19.3425H22.6601L18.2266 8.79206ZM15.6453 14.9465L17.2414 11.1395L18.8374 14.9465H15.6453Z" fill="white"/>
</g>
<defs>
<clipPath id="clip0_7_461">
<rect width="23.6453" height="21.1009" fill="white"/>
</clipPath>
</defs>
</svg>
